<mxfile host="app.diagrams.net" modified="2024-04-04T00:41:38.773Z" agent="Mozilla/5.0 (Windows NT 6.1; Win64; x64) AppleWebKit/537.36 (KHTML, like Gecko) Chrome/109.0.0.0 Safari/537.36" etag="kIX9Gpej8fbgeMsCXx7e" version="24.2.2" type="github">
  <diagram name="Page-1" id="9f46799a-70d6-7492-0946-bef42562c5a5">
    <mxGraphModel dx="2271" dy="695" grid="1" gridSize="10" guides="1" tooltips="1" connect="1" arrows="1" fold="1" page="1" pageScale="1" pageWidth="1100" pageHeight="850" background="none" math="0" shadow="0">
      <root>
        <mxCell id="0" />
        <mxCell id="1" parent="0" />
        <mxCell id="78961159f06e98e8-17" value="MÃ­dia" style="swimlane;html=1;fontStyle=1;align=center;verticalAlign=top;childLayout=stackLayout;horizontal=1;startSize=26;horizontalStack=0;resizeParent=1;resizeLast=0;collapsible=1;marginBottom=0;swimlaneFillColor=#ffffff;rounded=0;shadow=0;comic=0;labelBackgroundColor=none;strokeWidth=1;fillColor=none;fontFamily=Verdana;fontSize=12" parent="1" vertex="1">
          <mxGeometry x="90" y="60" width="160" height="366" as="geometry" />
        </mxCell>
        <mxCell id="78961159f06e98e8-21" value="+ Id: int" style="text;html=1;strokeColor=none;fillColor=none;align=left;verticalAlign=top;spacingLeft=4;spacingRight=4;whiteSpace=wrap;overflow=hidden;rotatable=0;points=[[0,0.5],[1,0.5]];portConstraint=eastwest;" parent="78961159f06e98e8-17" vertex="1">
          <mxGeometry y="26" width="160" height="26" as="geometry" />
        </mxCell>
        <mxCell id="78961159f06e98e8-23" value="+ Nome: string" style="text;html=1;strokeColor=none;fillColor=none;align=left;verticalAlign=top;spacingLeft=4;spacingRight=4;whiteSpace=wrap;overflow=hidden;rotatable=0;points=[[0,0.5],[1,0.5]];portConstraint=eastwest;" parent="78961159f06e98e8-17" vertex="1">
          <mxGeometry y="52" width="160" height="26" as="geometry" />
        </mxCell>
        <mxCell id="78961159f06e98e8-25" value="+ Tipo&lt;span style=&quot;background-color: initial;&quot;&gt;: TipoMidia&lt;/span&gt;" style="text;html=1;strokeColor=none;fillColor=none;align=left;verticalAlign=top;spacingLeft=4;spacingRight=4;whiteSpace=wrap;overflow=hidden;rotatable=0;points=[[0,0.5],[1,0.5]];portConstraint=eastwest;" parent="78961159f06e98e8-17" vertex="1">
          <mxGeometry y="78" width="160" height="26" as="geometry" />
        </mxCell>
        <mxCell id="78961159f06e98e8-26" value="+ Tags:Tag Array" style="text;html=1;strokeColor=none;fillColor=none;align=left;verticalAlign=top;spacingLeft=4;spacingRight=4;whiteSpace=wrap;overflow=hidden;rotatable=0;points=[[0,0.5],[1,0.5]];portConstraint=eastwest;" parent="78961159f06e98e8-17" vertex="1">
          <mxGeometry y="104" width="160" height="26" as="geometry" />
        </mxCell>
        <mxCell id="_T5bNy2PAzC80s181GLm-63" value="+ Referencias: Referencia" style="text;html=1;strokeColor=none;fillColor=none;align=left;verticalAlign=top;spacingLeft=4;spacingRight=4;whiteSpace=wrap;overflow=hidden;rotatable=0;points=[[0,0.5],[1,0.5]];portConstraint=eastwest;" vertex="1" parent="78961159f06e98e8-17">
          <mxGeometry y="130" width="160" height="26" as="geometry" />
        </mxCell>
        <mxCell id="78961159f06e98e8-19" value="" style="line;html=1;strokeWidth=1;fillColor=none;align=left;verticalAlign=middle;spacingTop=-1;spacingLeft=3;spacingRight=3;rotatable=0;labelPosition=right;points=[];portConstraint=eastwest;" parent="78961159f06e98e8-17" vertex="1">
          <mxGeometry y="156" width="160" height="8" as="geometry" />
        </mxCell>
        <mxCell id="78961159f06e98e8-20" value="+ InserirMidia(Nome, Tipo, Tags): void" style="text;html=1;strokeColor=none;fillColor=none;align=left;verticalAlign=top;spacingLeft=4;spacingRight=4;whiteSpace=wrap;overflow=hidden;rotatable=0;points=[[0,0.5],[1,0.5]];portConstraint=eastwest;" parent="78961159f06e98e8-17" vertex="1">
          <mxGeometry y="164" width="160" height="42" as="geometry" />
        </mxCell>
        <mxCell id="78961159f06e98e8-27" value="+ AtualizarMidia(Nome = &quot;&quot;, Tipo, Tags): void" style="text;html=1;strokeColor=none;fillColor=none;align=left;verticalAlign=top;spacingLeft=4;spacingRight=4;whiteSpace=wrap;overflow=hidden;rotatable=0;points=[[0,0.5],[1,0.5]];portConstraint=eastwest;" parent="78961159f06e98e8-17" vertex="1">
          <mxGeometry y="206" width="160" height="40" as="geometry" />
        </mxCell>
        <mxCell id="_T5bNy2PAzC80s181GLm-1" value="+ DeletarMidia(void): void" style="text;html=1;strokeColor=none;fillColor=none;align=left;verticalAlign=top;spacingLeft=4;spacingRight=4;whiteSpace=wrap;overflow=hidden;rotatable=0;points=[[0,0.5],[1,0.5]];portConstraint=eastwest;" vertex="1" parent="78961159f06e98e8-17">
          <mxGeometry y="246" width="160" height="30" as="geometry" />
        </mxCell>
        <mxCell id="_T5bNy2PAzC80s181GLm-3" value="+ BuscarMidia&lt;span style=&quot;background-color: initial;&quot;&gt;(Nome): Midia&lt;/span&gt;" style="text;html=1;strokeColor=none;fillColor=none;align=left;verticalAlign=top;spacingLeft=4;spacingRight=4;whiteSpace=wrap;overflow=hidden;rotatable=0;points=[[0,0.5],[1,0.5]];portConstraint=eastwest;" vertex="1" parent="78961159f06e98e8-17">
          <mxGeometry y="276" width="160" height="40" as="geometry" />
        </mxCell>
        <mxCell id="_T5bNy2PAzC80s181GLm-30" value="+ BuscarMidias&lt;span style=&quot;background-color: initial;&quot;&gt;(Nome = &quot;&quot;, Tipo): Midia Array&lt;/span&gt;" style="text;html=1;strokeColor=none;fillColor=none;align=left;verticalAlign=top;spacingLeft=4;spacingRight=4;whiteSpace=wrap;overflow=hidden;rotatable=0;points=[[0,0.5],[1,0.5]];portConstraint=eastwest;" vertex="1" parent="78961159f06e98e8-17">
          <mxGeometry y="316" width="160" height="50" as="geometry" />
        </mxCell>
        <mxCell id="78961159f06e98e8-30" value="TipoMidia" style="swimlane;html=1;fontStyle=1;align=center;verticalAlign=top;childLayout=stackLayout;horizontal=1;startSize=26;horizontalStack=0;resizeParent=1;resizeLast=0;collapsible=1;marginBottom=0;swimlaneFillColor=#ffffff;rounded=0;shadow=0;comic=0;labelBackgroundColor=none;strokeWidth=1;fillColor=none;fontFamily=Verdana;fontSize=12" parent="1" vertex="1">
          <mxGeometry x="-170" y="106" width="170" height="78" as="geometry" />
        </mxCell>
        <mxCell id="_T5bNy2PAzC80s181GLm-47" value="+ Id: int" style="text;html=1;strokeColor=none;fillColor=none;align=left;verticalAlign=top;spacingLeft=4;spacingRight=4;whiteSpace=wrap;overflow=hidden;rotatable=0;points=[[0,0.5],[1,0.5]];portConstraint=eastwest;" vertex="1" parent="78961159f06e98e8-30">
          <mxGeometry y="26" width="170" height="26" as="geometry" />
        </mxCell>
        <mxCell id="78961159f06e98e8-31" value="+ Nome: string" style="text;html=1;strokeColor=none;fillColor=none;align=left;verticalAlign=top;spacingLeft=4;spacingRight=4;whiteSpace=wrap;overflow=hidden;rotatable=0;points=[[0,0.5],[1,0.5]];portConstraint=eastwest;" parent="78961159f06e98e8-30" vertex="1">
          <mxGeometry y="52" width="170" height="26" as="geometry" />
        </mxCell>
        <mxCell id="78961159f06e98e8-108" value="Classname" style="swimlane;html=1;fontStyle=1;align=center;verticalAlign=top;childLayout=stackLayout;horizontal=1;startSize=26;horizontalStack=0;resizeParent=1;resizeLast=0;collapsible=1;marginBottom=0;swimlaneFillColor=#ffffff;rounded=0;shadow=0;comic=0;labelBackgroundColor=none;strokeWidth=1;fillColor=none;fontFamily=Verdana;fontSize=12" parent="1" vertex="1">
          <mxGeometry x="910" y="809.9999999999998" width="160" height="147" as="geometry" />
        </mxCell>
        <mxCell id="78961159f06e98e8-109" value="+ field: type" style="text;html=1;strokeColor=none;fillColor=none;align=left;verticalAlign=top;spacingLeft=4;spacingRight=4;whiteSpace=wrap;overflow=hidden;rotatable=0;points=[[0,0.5],[1,0.5]];portConstraint=eastwest;" parent="78961159f06e98e8-108" vertex="1">
          <mxGeometry y="26" width="160" height="26" as="geometry" />
        </mxCell>
        <mxCell id="78961159f06e98e8-110" value="+ field: type" style="text;html=1;strokeColor=none;fillColor=none;align=left;verticalAlign=top;spacingLeft=4;spacingRight=4;whiteSpace=wrap;overflow=hidden;rotatable=0;points=[[0,0.5],[1,0.5]];portConstraint=eastwest;" parent="78961159f06e98e8-108" vertex="1">
          <mxGeometry y="52" width="160" height="26" as="geometry" />
        </mxCell>
        <mxCell id="78961159f06e98e8-116" value="" style="line;html=1;strokeWidth=1;fillColor=none;align=left;verticalAlign=middle;spacingTop=-1;spacingLeft=3;spacingRight=3;rotatable=0;labelPosition=right;points=[];portConstraint=eastwest;" parent="78961159f06e98e8-108" vertex="1">
          <mxGeometry y="78" width="160" height="8" as="geometry" />
        </mxCell>
        <mxCell id="78961159f06e98e8-117" value="+ method(type): type" style="text;html=1;strokeColor=none;fillColor=none;align=left;verticalAlign=top;spacingLeft=4;spacingRight=4;whiteSpace=wrap;overflow=hidden;rotatable=0;points=[[0,0.5],[1,0.5]];portConstraint=eastwest;" parent="78961159f06e98e8-108" vertex="1">
          <mxGeometry y="86" width="160" height="26" as="geometry" />
        </mxCell>
        <mxCell id="78961159f06e98e8-120" value="+ method(type): type" style="text;html=1;strokeColor=none;fillColor=none;align=left;verticalAlign=top;spacingLeft=4;spacingRight=4;whiteSpace=wrap;overflow=hidden;rotatable=0;points=[[0,0.5],[1,0.5]];portConstraint=eastwest;" parent="78961159f06e98e8-108" vertex="1">
          <mxGeometry y="112" width="160" height="26" as="geometry" />
        </mxCell>
        <mxCell id="78961159f06e98e8-121" style="edgeStyle=elbowEdgeStyle;html=1;labelBackgroundColor=none;startFill=0;startSize=8;endArrow=none;endFill=0;endSize=16;fontFamily=Verdana;fontSize=12;elbow=vertical;" parent="1" source="78961159f06e98e8-17" target="78961159f06e98e8-30" edge="1">
          <mxGeometry relative="1" as="geometry">
            <mxPoint x="250" y="259.88235294117635" as="sourcePoint" />
          </mxGeometry>
        </mxCell>
        <mxCell id="_T5bNy2PAzC80s181GLm-4" value="Tag" style="swimlane;html=1;fontStyle=1;align=center;verticalAlign=top;childLayout=stackLayout;horizontal=1;startSize=26;horizontalStack=0;resizeParent=1;resizeLast=0;collapsible=1;marginBottom=0;swimlaneFillColor=#ffffff;rounded=0;shadow=0;comic=0;labelBackgroundColor=none;strokeWidth=1;fillColor=none;fontFamily=Verdana;fontSize=12" vertex="1" parent="1">
          <mxGeometry x="325" y="210" width="200" height="240" as="geometry" />
        </mxCell>
        <mxCell id="_T5bNy2PAzC80s181GLm-40" value="+ Id: int" style="text;html=1;strokeColor=none;fillColor=none;align=left;verticalAlign=top;spacingLeft=4;spacingRight=4;whiteSpace=wrap;overflow=hidden;rotatable=0;points=[[0,0.5],[1,0.5]];portConstraint=eastwest;" vertex="1" parent="_T5bNy2PAzC80s181GLm-4">
          <mxGeometry y="26" width="200" height="26" as="geometry" />
        </mxCell>
        <mxCell id="_T5bNy2PAzC80s181GLm-5" value="+ Nome: string" style="text;html=1;strokeColor=none;fillColor=none;align=left;verticalAlign=top;spacingLeft=4;spacingRight=4;whiteSpace=wrap;overflow=hidden;rotatable=0;points=[[0,0.5],[1,0.5]];portConstraint=eastwest;" vertex="1" parent="_T5bNy2PAzC80s181GLm-4">
          <mxGeometry y="52" width="200" height="26" as="geometry" />
        </mxCell>
        <mxCell id="_T5bNy2PAzC80s181GLm-9" value="" style="line;html=1;strokeWidth=1;fillColor=none;align=left;verticalAlign=middle;spacingTop=-1;spacingLeft=3;spacingRight=3;rotatable=0;labelPosition=right;points=[];portConstraint=eastwest;" vertex="1" parent="_T5bNy2PAzC80s181GLm-4">
          <mxGeometry y="78" width="200" height="8" as="geometry" />
        </mxCell>
        <mxCell id="_T5bNy2PAzC80s181GLm-25" value="+ InserirTag(Nome): void" style="text;html=1;strokeColor=none;fillColor=none;align=left;verticalAlign=top;spacingLeft=4;spacingRight=4;whiteSpace=wrap;overflow=hidden;rotatable=0;points=[[0,0.5],[1,0.5]];portConstraint=eastwest;" vertex="1" parent="_T5bNy2PAzC80s181GLm-4">
          <mxGeometry y="86" width="200" height="26" as="geometry" />
        </mxCell>
        <mxCell id="_T5bNy2PAzC80s181GLm-26" value="+ AtualizarTag(Nome): void" style="text;html=1;strokeColor=#C73500;fillColor=#fa6800;align=left;verticalAlign=top;spacingLeft=4;spacingRight=4;whiteSpace=wrap;overflow=hidden;rotatable=0;points=[[0,0.5],[1,0.5]];portConstraint=eastwest;fontColor=#000000;" vertex="1" parent="_T5bNy2PAzC80s181GLm-4">
          <mxGeometry y="112" width="200" height="26" as="geometry" />
        </mxCell>
        <mxCell id="_T5bNy2PAzC80s181GLm-27" value="+ DeletarTag(void): void" style="text;html=1;strokeColor=none;fillColor=none;align=left;verticalAlign=top;spacingLeft=4;spacingRight=4;whiteSpace=wrap;overflow=hidden;rotatable=0;points=[[0,0.5],[1,0.5]];portConstraint=eastwest;" vertex="1" parent="_T5bNy2PAzC80s181GLm-4">
          <mxGeometry y="138" width="200" height="30" as="geometry" />
        </mxCell>
        <mxCell id="_T5bNy2PAzC80s181GLm-28" value="+ BuscarTag&lt;span style=&quot;background-color: initial;&quot;&gt;(void): Tag&lt;/span&gt;" style="text;html=1;strokeColor=none;fillColor=none;align=left;verticalAlign=top;spacingLeft=4;spacingRight=4;whiteSpace=wrap;overflow=hidden;rotatable=0;points=[[0,0.5],[1,0.5]];portConstraint=eastwest;" vertex="1" parent="_T5bNy2PAzC80s181GLm-4">
          <mxGeometry y="168" width="200" height="26" as="geometry" />
        </mxCell>
        <mxCell id="_T5bNy2PAzC80s181GLm-29" value="+ BuscarMidiasRelacionadas&lt;span style=&quot;background-color: initial;&quot;&gt;(): Int Array&lt;/span&gt;" style="text;html=1;strokeColor=none;fillColor=none;align=left;verticalAlign=top;spacingLeft=4;spacingRight=4;whiteSpace=wrap;overflow=hidden;rotatable=0;points=[[0,0.5],[1,0.5]];portConstraint=eastwest;" vertex="1" parent="_T5bNy2PAzC80s181GLm-4">
          <mxGeometry y="194" width="200" height="36" as="geometry" />
        </mxCell>
        <mxCell id="_T5bNy2PAzC80s181GLm-13" value="1" style="text;html=1;align=center;verticalAlign=middle;whiteSpace=wrap;rounded=0;" vertex="1" parent="1">
          <mxGeometry x="-15" y="123.5" width="60" height="30" as="geometry" />
        </mxCell>
        <mxCell id="_T5bNy2PAzC80s181GLm-14" value="1" style="text;html=1;align=center;verticalAlign=middle;whiteSpace=wrap;rounded=0;" vertex="1" parent="1">
          <mxGeometry x="60" y="130" width="30" height="17" as="geometry" />
        </mxCell>
        <mxCell id="_T5bNy2PAzC80s181GLm-15" value="&lt;h1 style=&quot;margin-top: 0px;&quot;&gt;&lt;span style=&quot;background-color: initial;&quot;&gt;Peso (Ideia)&lt;/span&gt;&lt;/h1&gt;&lt;h1 style=&quot;margin-top: 0px;&quot;&gt;&lt;span style=&quot;background-color: initial;&quot;&gt;&lt;span style=&quot;font-size: 12px; font-weight: normal;&quot;&gt;Se trata de um valor que define o nÃ­vel de importÃ¢ncia desta tag para a MÃ­dia, pensei nisso pois, ao meu ver, as tags devem ser Ãºnicas, ou seja, nÃ£o podem se repetir como &quot;Terror&quot; e &quot;terror&quot;&amp;nbsp; ou qualquer &lt;/span&gt;&lt;span style=&quot;font-size: 12px; font-weight: 400;&quot;&gt;variaÃ§Ã£o, entÃ£o poderÃ­amos&amp;nbsp;apenas validar por ela e caso aumentar o valor de relacionamento&amp;nbsp;com um peso.&lt;/span&gt;&lt;/span&gt;&lt;br&gt;&lt;/h1&gt;" style="text;html=1;whiteSpace=wrap;overflow=hidden;rounded=0;" vertex="1" parent="1">
          <mxGeometry x="20" y="760" width="350" height="200" as="geometry" />
        </mxCell>
        <mxCell id="_T5bNy2PAzC80s181GLm-16" value="" style="endArrow=none;html=1;rounded=0;strokeColor=#FF0D0D;exitX=1;exitY=0.25;exitDx=0;exitDy=0;entryX=0;entryY=0.5;entryDx=0;entryDy=0;" edge="1" parent="1" source="_T5bNy2PAzC80s181GLm-15" target="_T5bNy2PAzC80s181GLm-37">
          <mxGeometry width="50" height="50" relative="1" as="geometry">
            <mxPoint x="730" y="270" as="sourcePoint" />
            <mxPoint x="640" y="250" as="targetPoint" />
            <Array as="points">
              <mxPoint x="600" y="810" />
              <mxPoint x="600" y="271" />
            </Array>
          </mxGeometry>
        </mxCell>
        <mxCell id="_T5bNy2PAzC80s181GLm-17" value="&lt;font style=&quot;font-size: 22px;&quot;&gt;Modelo&lt;/font&gt;" style="text;html=1;align=center;verticalAlign=middle;whiteSpace=wrap;rounded=0;" vertex="1" parent="1">
          <mxGeometry x="910" y="760" width="80" height="30" as="geometry" />
        </mxCell>
        <mxCell id="_T5bNy2PAzC80s181GLm-18" style="edgeStyle=elbowEdgeStyle;html=1;labelBackgroundColor=none;startFill=0;startSize=8;endArrow=none;endFill=0;endSize=16;fontFamily=Verdana;fontSize=12;elbow=vertical;" edge="1" parent="1">
          <mxGeometry relative="1" as="geometry">
            <mxPoint x="250" y="229.88" as="sourcePoint" />
            <mxPoint x="325" y="230" as="targetPoint" />
          </mxGeometry>
        </mxCell>
        <mxCell id="_T5bNy2PAzC80s181GLm-19" value="1" style="text;html=1;align=center;verticalAlign=middle;whiteSpace=wrap;rounded=0;" vertex="1" parent="1">
          <mxGeometry x="230" y="200" width="60" height="30" as="geometry" />
        </mxCell>
        <mxCell id="_T5bNy2PAzC80s181GLm-20" value="n" style="text;html=1;align=center;verticalAlign=middle;whiteSpace=wrap;rounded=0;" vertex="1" parent="1">
          <mxGeometry x="280" y="200" width="60" height="30" as="geometry" />
        </mxCell>
        <mxCell id="_T5bNy2PAzC80s181GLm-31" value="MidiaPesoTag" style="swimlane;html=1;fontStyle=1;align=center;verticalAlign=top;childLayout=stackLayout;horizontal=1;startSize=26;horizontalStack=0;resizeParent=1;resizeLast=0;collapsible=1;marginBottom=0;swimlaneFillColor=#ffffff;rounded=0;shadow=0;comic=0;labelBackgroundColor=none;strokeWidth=1;fillColor=none;fontFamily=Verdana;fontSize=12" vertex="1" parent="1">
          <mxGeometry x="670" y="60" width="190" height="290" as="geometry" />
        </mxCell>
        <mxCell id="_T5bNy2PAzC80s181GLm-32" value="+ IdMidia: Int" style="text;html=1;strokeColor=none;fillColor=none;align=left;verticalAlign=top;spacingLeft=4;spacingRight=4;whiteSpace=wrap;overflow=hidden;rotatable=0;points=[[0,0.5],[1,0.5]];portConstraint=eastwest;" vertex="1" parent="_T5bNy2PAzC80s181GLm-31">
          <mxGeometry y="26" width="190" height="26" as="geometry" />
        </mxCell>
        <mxCell id="_T5bNy2PAzC80s181GLm-39" value="+ IdTag: Int" style="text;html=1;strokeColor=none;fillColor=none;align=left;verticalAlign=top;spacingLeft=4;spacingRight=4;whiteSpace=wrap;overflow=hidden;rotatable=0;points=[[0,0.5],[1,0.5]];portConstraint=eastwest;" vertex="1" parent="_T5bNy2PAzC80s181GLm-31">
          <mxGeometry y="52" width="190" height="26" as="geometry" />
        </mxCell>
        <mxCell id="_T5bNy2PAzC80s181GLm-37" value="+ Peso: int" style="text;html=1;strokeColor=#C73500;fillColor=#fa6800;align=left;verticalAlign=top;spacingLeft=4;spacingRight=4;whiteSpace=wrap;overflow=hidden;rotatable=0;points=[[0,0.5],[1,0.5]];portConstraint=eastwest;fontColor=#000000;" vertex="1" parent="_T5bNy2PAzC80s181GLm-31">
          <mxGeometry y="78" width="190" height="26" as="geometry" />
        </mxCell>
        <mxCell id="_T5bNy2PAzC80s181GLm-34" value="" style="line;html=1;strokeWidth=1;fillColor=none;align=left;verticalAlign=middle;spacingTop=-1;spacingLeft=3;spacingRight=3;rotatable=0;labelPosition=right;points=[];portConstraint=eastwest;" vertex="1" parent="_T5bNy2PAzC80s181GLm-31">
          <mxGeometry y="104" width="190" height="8" as="geometry" />
        </mxCell>
        <mxCell id="_T5bNy2PAzC80s181GLm-41" value="+ InserirMidiaPesoTag(IdMidia, IdTag, Peso): void" style="text;html=1;strokeColor=none;fillColor=none;align=left;verticalAlign=top;spacingLeft=4;spacingRight=4;whiteSpace=wrap;overflow=hidden;rotatable=0;points=[[0,0.5],[1,0.5]];portConstraint=eastwest;" vertex="1" parent="_T5bNy2PAzC80s181GLm-31">
          <mxGeometry y="112" width="190" height="48" as="geometry" />
        </mxCell>
        <mxCell id="_T5bNy2PAzC80s181GLm-44" value="+ BuscarMidiaPesoTag&lt;span style=&quot;background-color: initial;&quot;&gt;(): Tag&lt;/span&gt;" style="text;html=1;strokeColor=none;fillColor=none;align=left;verticalAlign=top;spacingLeft=4;spacingRight=4;whiteSpace=wrap;overflow=hidden;rotatable=0;points=[[0,0.5],[1,0.5]];portConstraint=eastwest;" vertex="1" parent="_T5bNy2PAzC80s181GLm-31">
          <mxGeometry y="160" width="190" height="40" as="geometry" />
        </mxCell>
        <mxCell id="_T5bNy2PAzC80s181GLm-43" value="+ DeletarMidiaPesoTag(): void" style="text;html=1;strokeColor=none;fillColor=none;align=left;verticalAlign=top;spacingLeft=4;spacingRight=4;whiteSpace=wrap;overflow=hidden;rotatable=0;points=[[0,0.5],[1,0.5]];portConstraint=eastwest;" vertex="1" parent="_T5bNy2PAzC80s181GLm-31">
          <mxGeometry y="200" width="190" height="40" as="geometry" />
        </mxCell>
        <mxCell id="_T5bNy2PAzC80s181GLm-42" value="+AtualizarMidiaPesoTag(Peso): void" style="text;html=1;strokeColor=none;fillColor=none;align=left;verticalAlign=top;spacingLeft=4;spacingRight=4;whiteSpace=wrap;overflow=hidden;rotatable=0;points=[[0,0.5],[1,0.5]];portConstraint=eastwest;" vertex="1" parent="_T5bNy2PAzC80s181GLm-31">
          <mxGeometry y="240" width="190" height="50" as="geometry" />
        </mxCell>
        <mxCell id="_T5bNy2PAzC80s181GLm-45" value="1" style="text;html=1;align=center;verticalAlign=middle;whiteSpace=wrap;rounded=0;" vertex="1" parent="1">
          <mxGeometry x="240" y="70" width="60" height="30" as="geometry" />
        </mxCell>
        <mxCell id="_T5bNy2PAzC80s181GLm-46" value="n" style="text;html=1;align=center;verticalAlign=middle;whiteSpace=wrap;rounded=0;" vertex="1" parent="1">
          <mxGeometry x="620" y="70" width="60" height="30" as="geometry" />
        </mxCell>
        <mxCell id="_T5bNy2PAzC80s181GLm-38" style="html=1;labelBackgroundColor=none;startFill=0;startSize=8;endArrow=none;endFill=0;endSize=16;fontFamily=Verdana;fontSize=12;elbow=vertical;exitX=1;exitY=0.5;exitDx=0;exitDy=0;entryX=0;entryY=0.5;entryDx=0;entryDy=0;" edge="1" parent="1" source="78961159f06e98e8-21" target="_T5bNy2PAzC80s181GLm-32">
          <mxGeometry relative="1" as="geometry">
            <mxPoint x="600" y="90.14000000000021" as="sourcePoint" />
            <mxPoint x="670" y="90.00000000000023" as="targetPoint" />
          </mxGeometry>
        </mxCell>
        <mxCell id="_T5bNy2PAzC80s181GLm-48" value="Usuario" style="swimlane;html=1;fontStyle=1;align=center;verticalAlign=top;childLayout=stackLayout;horizontal=1;startSize=26;horizontalStack=0;resizeParent=1;resizeLast=0;collapsible=1;marginBottom=0;swimlaneFillColor=#ffffff;rounded=0;shadow=0;comic=0;labelBackgroundColor=none;strokeWidth=1;fillColor=none;fontFamily=Verdana;fontSize=12" vertex="1" parent="1">
          <mxGeometry x="-530" y="60" width="180" height="260" as="geometry" />
        </mxCell>
        <mxCell id="_T5bNy2PAzC80s181GLm-49" value="+ Id: Int" style="text;html=1;strokeColor=none;fillColor=none;align=left;verticalAlign=top;spacingLeft=4;spacingRight=4;whiteSpace=wrap;overflow=hidden;rotatable=0;points=[[0,0.5],[1,0.5]];portConstraint=eastwest;" vertex="1" parent="_T5bNy2PAzC80s181GLm-48">
          <mxGeometry y="26" width="180" height="26" as="geometry" />
        </mxCell>
        <mxCell id="_T5bNy2PAzC80s181GLm-50" value="+ Username: string" style="text;html=1;strokeColor=none;fillColor=none;align=left;verticalAlign=top;spacingLeft=4;spacingRight=4;whiteSpace=wrap;overflow=hidden;rotatable=0;points=[[0,0.5],[1,0.5]];portConstraint=eastwest;" vertex="1" parent="_T5bNy2PAzC80s181GLm-48">
          <mxGeometry y="52" width="180" height="26" as="geometry" />
        </mxCell>
        <mxCell id="_T5bNy2PAzC80s181GLm-51" value="" style="line;html=1;strokeWidth=1;fillColor=none;align=left;verticalAlign=middle;spacingTop=-1;spacingLeft=3;spacingRight=3;rotatable=0;labelPosition=right;points=[];portConstraint=eastwest;" vertex="1" parent="_T5bNy2PAzC80s181GLm-48">
          <mxGeometry y="78" width="180" height="8" as="geometry" />
        </mxCell>
        <mxCell id="_T5bNy2PAzC80s181GLm-58" value="+ BuscarUsuario&lt;span style=&quot;background-color: initial;&quot;&gt;(Username): :Usuario&lt;/span&gt;" style="text;html=1;strokeColor=none;fillColor=none;align=left;verticalAlign=top;spacingLeft=4;spacingRight=4;whiteSpace=wrap;overflow=hidden;rotatable=0;points=[[0,0.5],[1,0.5]];portConstraint=eastwest;" vertex="1" parent="_T5bNy2PAzC80s181GLm-48">
          <mxGeometry y="86" width="180" height="44" as="geometry" />
        </mxCell>
        <mxCell id="_T5bNy2PAzC80s181GLm-57" value="+ DeletarUsuario(): void" style="text;html=1;strokeColor=none;fillColor=none;align=left;verticalAlign=top;spacingLeft=4;spacingRight=4;whiteSpace=wrap;overflow=hidden;rotatable=0;points=[[0,0.5],[1,0.5]];portConstraint=eastwest;" vertex="1" parent="_T5bNy2PAzC80s181GLm-48">
          <mxGeometry y="130" width="180" height="30" as="geometry" />
        </mxCell>
        <mxCell id="_T5bNy2PAzC80s181GLm-56" value="+ AtualizarUsuario(Username): void" style="text;html=1;strokeColor=none;fillColor=none;align=left;verticalAlign=top;spacingLeft=4;spacingRight=4;whiteSpace=wrap;overflow=hidden;rotatable=0;points=[[0,0.5],[1,0.5]];portConstraint=eastwest;" vertex="1" parent="_T5bNy2PAzC80s181GLm-48">
          <mxGeometry y="160" width="180" height="50" as="geometry" />
        </mxCell>
        <mxCell id="_T5bNy2PAzC80s181GLm-55" value="+ InserirUsuario(Username): void" style="text;html=1;strokeColor=none;fillColor=none;align=left;verticalAlign=top;spacingLeft=4;spacingRight=4;whiteSpace=wrap;overflow=hidden;rotatable=0;points=[[0,0.5],[1,0.5]];portConstraint=eastwest;" vertex="1" parent="_T5bNy2PAzC80s181GLm-48">
          <mxGeometry y="210" width="180" height="50" as="geometry" />
        </mxCell>
        <mxCell id="_T5bNy2PAzC80s181GLm-60" value="" style="endArrow=none;html=1;rounded=0;strokeColor=#432D57;exitX=1;exitY=0.1;exitDx=0;exitDy=0;entryX=1;entryY=0.5;entryDx=0;entryDy=0;fillColor=#76608a;exitPerimeter=0;" edge="1" parent="1" source="_T5bNy2PAzC80s181GLm-61" target="_T5bNy2PAzC80s181GLm-26">
          <mxGeometry width="50" height="50" relative="1" as="geometry">
            <mxPoint x="390" y="869" as="sourcePoint" />
            <mxPoint x="680" y="430" as="targetPoint" />
            <Array as="points">
              <mxPoint x="640" y="1000" />
              <mxPoint x="640" y="335" />
            </Array>
          </mxGeometry>
        </mxCell>
        <mxCell id="_T5bNy2PAzC80s181GLm-61" value="&lt;h1 style=&quot;margin-top: 0px;&quot;&gt;&lt;span style=&quot;background-color: initial;&quot;&gt;Update de Tag&lt;/span&gt;&lt;/h1&gt;&lt;h1 style=&quot;margin-top: 0px;&quot;&gt;&lt;span style=&quot;font-size: 12px; font-weight: 400;&quot;&gt;A tag deve ser Ãºnica e imutÃ¡vel ou esta poderÃ¡ ter alteraÃ§Ãµes???&lt;/span&gt;&lt;/h1&gt;" style="text;html=1;whiteSpace=wrap;overflow=hidden;rounded=0;" vertex="1" parent="1">
          <mxGeometry x="10" y="980" width="350" height="200" as="geometry" />
        </mxCell>
        <mxCell id="_T5bNy2PAzC80s181GLm-62" value="&lt;font style=&quot;font-size: 41px;&quot;&gt;&lt;b&gt;TÃ³picos Indefinidos&lt;/b&gt;&lt;/font&gt;" style="text;html=1;align=center;verticalAlign=middle;whiteSpace=wrap;rounded=0;" vertex="1" parent="1">
          <mxGeometry x="-100" y="700" width="610" height="30" as="geometry" />
        </mxCell>
        <mxCell id="_T5bNy2PAzC80s181GLm-64" value="Referencia" style="swimlane;html=1;fontStyle=1;align=center;verticalAlign=top;childLayout=stackLayout;horizontal=1;startSize=26;horizontalStack=0;resizeParent=1;resizeLast=0;collapsible=1;marginBottom=0;swimlaneFillColor=#ffffff;rounded=0;shadow=0;comic=0;labelBackgroundColor=none;strokeWidth=1;fillColor=none;fontFamily=Verdana;fontSize=12" vertex="1" parent="1">
          <mxGeometry x="-160" y="220" width="160" height="160" as="geometry" />
        </mxCell>
        <mxCell id="_T5bNy2PAzC80s181GLm-65" value="+ urlImagemMidia: string" style="text;html=1;strokeColor=none;fillColor=none;align=left;verticalAlign=top;spacingLeft=4;spacingRight=4;whiteSpace=wrap;overflow=hidden;rotatable=0;points=[[0,0.5],[1,0.5]];portConstraint=eastwest;" vertex="1" parent="_T5bNy2PAzC80s181GLm-64">
          <mxGeometry y="26" width="160" height="26" as="geometry" />
        </mxCell>
        <mxCell id="_T5bNy2PAzC80s181GLm-66" value="+ urlFonteMidia: string" style="text;html=1;strokeColor=none;fillColor=none;align=left;verticalAlign=top;spacingLeft=4;spacingRight=4;whiteSpace=wrap;overflow=hidden;rotatable=0;points=[[0,0.5],[1,0.5]];portConstraint=eastwest;" vertex="1" parent="_T5bNy2PAzC80s181GLm-64">
          <mxGeometry y="52" width="160" height="26" as="geometry" />
        </mxCell>
        <mxCell id="_T5bNy2PAzC80s181GLm-67" value="" style="line;html=1;strokeWidth=1;fillColor=none;align=left;verticalAlign=middle;spacingTop=-1;spacingLeft=3;spacingRight=3;rotatable=0;labelPosition=right;points=[];portConstraint=eastwest;" vertex="1" parent="_T5bNy2PAzC80s181GLm-64">
          <mxGeometry y="78" width="160" height="8" as="geometry" />
        </mxCell>
        <mxCell id="_T5bNy2PAzC80s181GLm-68" value="+ method(type): type" style="text;html=1;strokeColor=none;fillColor=none;align=left;verticalAlign=top;spacingLeft=4;spacingRight=4;whiteSpace=wrap;overflow=hidden;rotatable=0;points=[[0,0.5],[1,0.5]];portConstraint=eastwest;" vertex="1" parent="_T5bNy2PAzC80s181GLm-64">
          <mxGeometry y="86" width="160" height="26" as="geometry" />
        </mxCell>
        <mxCell id="_T5bNy2PAzC80s181GLm-69" value="+ method(type): type" style="text;html=1;strokeColor=none;fillColor=none;align=left;verticalAlign=top;spacingLeft=4;spacingRight=4;whiteSpace=wrap;overflow=hidden;rotatable=0;points=[[0,0.5],[1,0.5]];portConstraint=eastwest;" vertex="1" parent="_T5bNy2PAzC80s181GLm-64">
          <mxGeometry y="112" width="160" height="26" as="geometry" />
        </mxCell>
        <mxCell id="_T5bNy2PAzC80s181GLm-71" style="edgeStyle=elbowEdgeStyle;html=1;labelBackgroundColor=none;startFill=0;startSize=8;endArrow=none;endFill=0;endSize=16;fontFamily=Verdana;fontSize=12;elbow=vertical;exitX=-0.006;exitY=0.149;exitDx=0;exitDy=0;exitPerimeter=0;" edge="1" parent="1" source="78961159f06e98e8-20">
          <mxGeometry relative="1" as="geometry">
            <mxPoint x="80" y="230" as="sourcePoint" />
            <mxPoint y="230" as="targetPoint" />
          </mxGeometry>
        </mxCell>
        <mxCell id="_T5bNy2PAzC80s181GLm-72" value="1" style="text;html=1;align=center;verticalAlign=middle;whiteSpace=wrap;rounded=0;" vertex="1" parent="1">
          <mxGeometry x="60" y="213" width="30" height="17" as="geometry" />
        </mxCell>
        <mxCell id="_T5bNy2PAzC80s181GLm-73" value="1" style="text;html=1;align=center;verticalAlign=middle;whiteSpace=wrap;rounded=0;" vertex="1" parent="1">
          <mxGeometry y="213" width="30" height="17" as="geometry" />
        </mxCell>
      </root>
    </mxGraphModel>
  </diagram>
</mxfile>
